<svg width="28" height="28" viewBox="0 0 28 28" fill="none" xmlns="http://www.w3.org/2000/svg">
<path fill-rule="evenodd" clip-rule="evenodd" d="M5.8 3C5.05739 3 4.3452 3.295 3.8201 3.8201C3.295 4.3452 3 5.05739 3 5.8V21.2C3 22.3139 3.4425 23.3822 4.23015 24.1698C5.0178 24.9575 6.08609 25.4 7.2 25.4C8.31391 25.4 9.3822 24.9575 10.1698 24.1698C10.9575 23.3822 11.4 22.3139 11.4 21.2V5.8C11.4 5.05739 11.105 4.3452 10.5799 3.8201C10.0548 3.295 9.34261 3 8.6 3H5.8ZM7.2 22.6C7.5713 22.6 7.9274 22.4525 8.18995 22.1899C8.4525 21.9274 8.6 21.5713 8.6 21.2C8.6 20.8287 8.4525 20.4726 8.18995 20.2101C7.9274 19.9475 7.5713 19.8 7.2 19.8C6.8287 19.8 6.4726 19.9475 6.21005 20.2101C5.9475 20.4726 5.8 20.8287 5.8 21.2C5.8 21.5713 5.9475 21.9274 6.21005 22.1899C6.4726 22.4525 6.8287 22.6 7.2 22.6ZM14.2 20.1402L21.06 13.2802C21.5849 12.7551 21.8798 12.0431 21.8798 11.3006C21.8798 10.5581 21.5849 9.84608 21.06 9.321L19.079 7.34C18.5539 6.81508 17.8419 6.5202 17.0994 6.5202C16.3569 6.5202 15.6449 6.81508 15.1198 7.34L14.2 8.2598V20.1402ZM22.6 25.4H12.8994L21.2994 17H22.6C23.3426 17 24.0548 17.295 24.5799 17.8201C25.105 18.3452 25.4 19.0574 25.4 19.8V22.6C25.4 23.3426 25.105 24.0548 24.5799 24.5799C24.0548 25.105 23.3426 25.4 22.6 25.4Z" fill="#282938"/>
</svg>
