<svg width="28" height="28" viewBox="0 0 28 28" fill="none" xmlns="http://www.w3.org/2000/svg">
<path fill-rule="evenodd" clip-rule="evenodd" d="M14.2 25.4C17.1704 25.4 20.0192 24.22 22.1196 22.1196C24.22 20.0192 25.4 17.1704 25.4 14.2C25.4 11.2296 24.22 8.38081 22.1196 6.2804C20.0192 4.18 17.1704 3 14.2 3C11.2296 3 8.38081 4.18 6.2804 6.2804C4.18 8.38081 3 11.2296 3 14.2C3 17.1704 4.18 20.0192 6.2804 22.1196C8.38081 24.22 11.2296 25.4 14.2 25.4ZM6.2648 11.4378C6.78461 9.9492 7.7121 8.63655 8.9416 7.6494C9.3168 8.222 9.9636 8.6 10.7 8.6C11.257 8.6 11.7911 8.82125 12.1849 9.21508C12.5788 9.6089 12.8 10.143 12.8 10.7V11.4C12.8 12.1426 13.095 12.8548 13.6201 13.3799C14.1452 13.905 14.8574 14.2 15.6 14.2C16.3426 14.2 17.0548 13.905 17.5799 13.3799C18.105 12.8548 18.4 12.1426 18.4 11.4C18.3998 10.7734 18.6097 10.1648 18.9963 9.67165C19.3829 9.17849 19.9237 8.82925 20.5322 8.6798C21.8682 10.2081 22.6031 12.17 22.6 14.2C22.6 14.676 22.5608 15.145 22.4838 15.6H21.2C20.4574 15.6 19.7452 15.895 19.2201 16.4201C18.695 16.9452 18.4 17.6574 18.4 18.4V21.4758C17.1236 22.2143 15.6746 22.6021 14.2 22.6V19.8C14.2 19.0574 13.905 18.3452 13.3799 17.8201C12.8548 17.295 12.1426 17 11.4 17C10.6574 17 9.9452 16.705 9.4201 16.1799C8.895 15.6548 8.6 14.9426 8.6 14.2C8.60025 13.5378 8.36579 12.8969 7.93826 12.3912C7.51074 11.8855 6.91781 11.5477 6.2648 11.4378Z" fill="#282938"/>
</svg>
