<svg width="28" height="28" viewBox="0 0 28 28" fill="none" xmlns="http://www.w3.org/2000/svg">
<path fill-rule="evenodd" clip-rule="evenodd" d="M15.6206 1.06348C15.9048 1.15286 16.1531 1.33058 16.3294 1.57078C16.5056 1.81099 16.6006 2.10115 16.6006 2.39908V9.39908H22.2006C22.4567 9.39897 22.7079 9.4691 22.9269 9.60184C23.1459 9.73458 23.3243 9.92484 23.4427 10.1519C23.5611 10.379 23.6149 10.6342 23.5983 10.8898C23.5817 11.1453 23.4954 11.3914 23.3486 11.6013L13.5486 25.6013C13.3781 25.8456 13.134 26.0292 12.8519 26.1252C12.5698 26.2213 12.2644 26.2248 11.9802 26.1354C11.696 26.0459 11.4477 25.868 11.2715 25.6277C11.0953 25.3874 11.0004 25.0971 11.0006 24.7991V17.7991H5.40062C5.14454 17.7992 4.89333 17.7291 4.67433 17.5963C4.45533 17.4636 4.27693 17.2733 4.15856 17.0462C4.04018 16.8192 3.98635 16.564 4.00294 16.3084C4.01953 16.0529 4.10589 15.8068 4.25262 15.5969L14.0526 1.59688C14.2234 1.35298 14.4676 1.1699 14.7495 1.07423C15.0315 0.978559 15.3367 0.975285 15.6206 1.06488V1.06348Z" fill="#282938"/>
</svg>
